<?xml version="1.0" standalone="no"?>
<!DOCTYPE svg PUBLIC "-//W3C//DTD SVG 20010904//EN"
 "http://www.w3.org/TR/2001/REC-SVG-20010904/DTD/svg10.dtd">
<svg version="1.0" xmlns="http://www.w3.org/2000/svg"
 width="1024.000000pt" height="1024.000000pt" viewBox="0 0 1024.000000 1024.000000"
 preserveAspectRatio="xMidYMid meet">

<g transform="translate(0.000000,1024.000000) scale(0.100000,-0.100000)"
fill="#000000" stroke="none">
<path d="M6825 8690 c3 -5 -14 -7 -46 -3 -38 5 -50 3 -45 -5 5 -9 -3 -10 -28
-6 -20 3 -36 1 -36 -4 0 -5 -12 -7 -26 -4 -16 3 -25 1 -21 -5 3 -5 -9 -9 -26
-9 -18 0 -41 -4 -52 -8 -11 -5 -31 -10 -45 -12 -14 -2 -26 -8 -28 -13 -2 -5
-10 -7 -19 -4 -12 5 -14 3 -8 -7 6 -10 4 -12 -8 -7 -10 3 -17 2 -17 -3 0 -5
-6 -7 -14 -4 -7 3 -16 -2 -19 -10 -4 -9 -13 -12 -28 -9 -17 5 -20 3 -14 -7 5
-8 4 -11 -3 -6 -13 8 -63 -14 -57 -25 3 -4 -5 -11 -17 -15 -13 -4 -24 -5 -25
-3 -1 2 -9 -5 -18 -16 -9 -11 -14 -13 -10 -5 6 13 5 13 -7 0 -7 -8 -20 -16
-28 -18 -8 -2 -24 -13 -35 -26 -11 -12 -18 -17 -15 -11 3 6 -6 -1 -19 -15 -13
-14 -20 -18 -16 -10 4 8 -3 4 -15 -10 -12 -14 -19 -18 -15 -10 4 8 -13 -6 -37
-31 -23 -25 -36 -36 -28 -25 8 12 -23 -15 -68 -59 -79 -76 -102 -104 -64 -74
10 8 0 -3 -22 -23 -23 -21 -37 -38 -32 -38 4 0 -2 -9 -15 -20 -13 -10 -20 -19
-15 -20 6 0 1 -7 -10 -16 -10 -8 -12 -13 -4 -9 8 4 5 -2 -7 -13 -12 -11 -19
-22 -16 -26 4 -3 1 -6 -4 -6 -16 0 -75 -99 -67 -112 4 -6 3 -8 -3 -5 -13 8
-26 -20 -16 -35 3 -6 1 -8 -4 -5 -13 8 -26 -20 -16 -35 3 -6 1 -8 -4 -5 -12 8
-26 -20 -17 -34 3 -5 0 -9 -6 -9 -6 0 -8 -4 -5 -10 3 -5 1 -10 -5 -10 -7 0 -9
-7 -6 -16 4 -10 2 -13 -6 -8 -8 5 -9 2 -5 -9 8 -22 -2 -49 -16 -40 -6 4 -8 0
-4 -10 4 -10 2 -17 -4 -17 -6 0 -9 -7 -5 -15 3 -8 1 -15 -4 -15 -5 0 -7 -7 -4
-15 4 -8 1 -15 -6 -15 -6 0 -8 -4 -5 -10 3 -5 1 -10 -5 -10 -6 0 -8 -5 -4 -11
3 -6 3 -14 -2 -18 -15 -10 -35 -62 -29 -72 4 -5 1 -9 -5 -9 -7 0 -10 -7 -6
-15 3 -8 0 -15 -6 -15 -6 0 -9 -3 -5 -6 3 -4 -1 -13 -9 -21 -8 -9 -13 -22 -10
-30 4 -9 1 -11 -5 -7 -7 4 -10 1 -7 -7 3 -8 -1 -20 -9 -27 -7 -8 -11 -18 -8
-23 4 -5 1 -9 -5 -9 -6 0 -8 -4 -5 -10 3 -5 1 -10 -6 -10 -7 0 -10 -3 -6 -6 3
-4 0 -13 -8 -20 -7 -8 -23 -40 -35 -71 -12 -32 -31 -66 -43 -76 -12 -10 -15
-16 -7 -12 8 4 4 -3 -10 -15 -14 -12 -18 -19 -10 -15 8 4 4 -2 -9 -13 -14 -11
-21 -24 -17 -31 4 -6 4 -10 -1 -9 -4 2 -9 -1 -10 -6 -1 -5 -5 -12 -10 -15 -18
-13 -77 -95 -63 -87 8 4 3 -2 -12 -14 -16 -12 -28 -28 -28 -35 0 -8 -7 -18
-16 -23 -9 -5 -16 -13 -17 -18 -1 -5 -14 -20 -29 -32 -16 -13 -26 -28 -23 -32
3 -5 -4 -14 -15 -20 -11 -6 -18 -15 -15 -21 4 -5 3 -8 -2 -7 -4 2 -8 0 -8 -3
0 -3 -15 -18 -33 -33 -17 -16 -30 -32 -27 -36 3 -5 0 -12 -6 -16 -8 -5 -9 -3
-4 7 8 12 6 12 -8 0 -9 -7 -17 -19 -17 -26 0 -7 -20 -29 -45 -50 -25 -20 -43
-40 -40 -45 3 -4 -10 -21 -27 -36 -18 -15 -32 -31 -30 -36 1 -4 -2 -7 -6 -6
-5 2 -44 -35 -87 -82 -44 -47 -66 -74 -49 -60 17 14 9 4 -18 -21 -26 -25 -48
-51 -48 -58 0 -7 -4 -10 -8 -7 -11 6 -85 -68 -77 -76 4 -3 -12 -21 -34 -38
-22 -18 -38 -37 -34 -43 3 -6 2 -7 -4 -4 -6 4 -21 -6 -34 -21 l-24 -27 25 20
c21 17 21 15 -4 -12 -16 -18 -33 -30 -38 -27 -5 3 -7 2 -6 -3 2 -4 -23 -32
-54 -62 -32 -29 -55 -57 -53 -61 3 -5 -13 -23 -35 -40 -23 -18 -37 -37 -33
-43 3 -7 2 -9 -2 -4 -9 7 -55 -30 -55 -44 0 -4 -24 -31 -52 -60 -29 -29 -41
-44 -27 -33 14 10 -7 -11 -45 -48 -39 -37 -68 -67 -64 -68 4 0 -22 -28 -58
-62 -35 -34 -64 -66 -64 -70 0 -5 -26 -33 -57 -64 -32 -31 -51 -52 -43 -48 8
4 -16 -24 -55 -61 -38 -37 -59 -59 -45 -50 14 10 -9 -15 -50 -55 -41 -40 -64
-65 -50 -55 14 10 -7 -13 -46 -51 -38 -38 -61 -62 -49 -54 12 8 5 -1 -14 -20
-20 -19 -35 -39 -33 -43 1 -5 -2 -6 -7 -3 -5 3 -25 -13 -46 -37 -20 -23 -55
-62 -78 -86 -23 -25 -33 -38 -22 -31 11 8 -11 -16 -50 -54 -38 -38 -59 -61
-45 -51 14 10 -7 -13 -46 -51 -84 -81 -188 -196 -158 -174 11 8 -9 -14 -45
-49 -37 -35 -57 -57 -46 -50 20 13 20 13 1 -8 -10 -13 -23 -20 -28 -17 -4 3
-7 1 -6 -5 2 -5 -18 -29 -43 -53 -25 -24 -36 -37 -25 -29 12 8 -4 -10 -34 -39
-30 -29 -54 -56 -52 -62 1 -5 -2 -7 -6 -4 -5 3 -18 -4 -28 -17 -19 -21 -19
-21 1 -8 11 7 -8 -12 -43 -44 -34 -31 -59 -61 -56 -66 3 -5 0 -8 -7 -7 -7 2
-13 -2 -14 -7 0 -6 -19 -28 -42 -49 -24 -21 -43 -42 -43 -47 0 -5 -17 -25 -37
-45 -21 -20 -31 -32 -23 -28 13 7 13 5 1 -9 -7 -9 -17 -14 -22 -11 -5 3 -9 2
-8 -3 1 -4 -25 -37 -59 -72 -34 -35 -59 -68 -55 -74 3 -6 1 -7 -4 -4 -6 4 -19
-3 -29 -15 -12 -14 -14 -18 -4 -13 8 5 -7 -13 -35 -40 -27 -26 -41 -41 -29
-34 11 8 -5 -11 -36 -41 -31 -30 -49 -50 -40 -45 9 6 -7 -12 -35 -40 -28 -27
-41 -43 -30 -35 12 8 7 1 -11 -17 -18 -17 -29 -35 -26 -39 4 -4 2 -4 -5 -1
-13 8 -76 -66 -65 -78 4 -5 2 -5 -4 -2 -7 4 -18 -1 -25 -10 -12 -14 -12 -16 1
-9 8 4 4 -2 -10 -15 -14 -12 -24 -26 -22 -31 1 -5 -2 -7 -7 -4 -12 8 -34 -20
-27 -33 4 -5 1 -13 -5 -17 -8 -5 -9 -3 -4 7 6 11 5 11 -5 2 -23 -21 -1 -32 58
-28 51 3 53 3 17 -5 -26 -5 22 -7 135 -5 96 2 184 7 196 12 11 4 106 100 210
212 419 452 502 541 613 662 108 117 185 199 515 554 72 77 154 165 181 195
667 729 1153 1218 1430 1439 66 53 122 98 125 101 9 9 73 53 178 123 197 131
364 208 564 263 95 26 117 28 278 28 151 0 186 -3 259 -22 144 -40 257 -99
352 -188 184 -170 271 -383 272 -664 1 -647 -463 -1322 -1283 -1867 -463 -308
-1071 -583 -1994 -904 -219 -76 -298 -108 -232 -93 20 5 27 4 22 -4 -5 -8 3
-10 26 -6 26 4 30 3 18 -6 -12 -9 -8 -10 19 -5 22 5 31 4 27 -3 -4 -7 6 -9 31
-6 30 5 35 3 23 -6 -12 -9 -9 -10 13 -5 20 4 27 2 22 -6 -6 -8 2 -9 25 -4 23
5 31 4 25 -4 -5 -8 1 -10 21 -5 19 5 25 4 20 -5 -6 -9 0 -10 20 -5 17 5 25 3
21 -3 -6 -10 39 -21 108 -28 11 -1 28 -6 38 -10 9 -4 26 -5 37 -2 13 3 18 1
13 -5 -4 -8 4 -9 26 -5 22 5 30 3 25 -4 -4 -8 4 -9 26 -4 24 5 31 4 25 -5 -6
-9 1 -10 24 -5 21 4 31 3 31 -5 0 -9 12 -10 38 -6 27 5 33 4 22 -4 -12 -8 -9
-10 15 -10 94 1 125 -1 119 -11 -6 -10 4 -11 119 -11 26 0 47 -5 47 -10 0 -5
19 -8 43 -7 24 2 48 -1 55 -5 6 -4 40 -4 74 -1 46 5 59 4 48 -4 -12 -8 -7 -11
20 -10 28 0 31 2 15 9 -12 5 27 6 93 3 122 -5 306 8 472 35 58 9 122 16 142
16 20 0 34 4 32 8 -3 4 -1 8 5 8 5 0 18 3 28 6 15 5 15 4 3 -5 -13 -9 -13 -11
3 -11 9 0 17 5 17 11 0 6 9 9 20 6 12 -3 18 -1 14 5 -5 7 2 9 20 4 19 -5 26
-3 21 4 -5 7 2 9 21 4 21 -5 25 -4 19 6 -6 10 -2 11 19 6 20 -5 26 -4 20 5 -5
9 1 10 20 5 20 -5 26 -3 21 5 -5 8 -1 9 14 4 13 -4 21 -2 21 5 0 7 7 10 15 7
8 -4 17 -2 21 4 3 6 12 8 20 5 8 -3 14 -1 14 4 0 5 7 6 17 3 10 -4 14 -2 9 5
-4 7 5 10 26 10 17 -1 34 4 36 10 2 6 9 9 17 6 7 -3 16 0 20 5 3 6 11 9 16 6
5 -4 9 -2 9 3 0 6 6 10 13 9 34 -1 48 4 41 15 -5 8 -2 9 9 5 9 -3 19 -2 22 4
4 5 11 7 16 4 5 -4 9 -1 9 5 0 6 5 8 10 5 6 -3 10 -2 10 4 0 6 7 7 17 4 12 -5
14 -3 8 7 -6 10 -4 12 8 7 9 -3 19 -2 22 4 4 5 11 7 16 4 5 -4 9 -1 9 5 0 6 4
9 9 5 5 -3 16 1 24 9 8 8 17 13 20 10 7 -7 77 28 77 38 0 5 5 6 10 3 6 -3 10
-1 10 5 0 6 5 8 10 5 6 -3 10 -1 10 6 0 7 3 9 7 6 5 -6 90 37 103 52 3 3 11 7
19 9 22 5 101 53 101 61 0 4 6 8 13 8 18 0 67 33 67 46 0 6 3 7 7 4 3 -4 12 1
20 11 10 11 12 12 8 2 -4 -8 1 -6 9 4 9 11 22 21 30 22 17 2 147 99 142 105
-2 2 8 13 22 23 15 12 22 14 17 5 -4 -8 7 2 24 21 18 19 29 28 26 20 -4 -8 6
-2 21 15 15 16 32 30 38 30 6 1 10 7 8 14 -1 7 2 10 7 6 6 -3 15 4 21 15 6 11
16 20 23 20 14 0 117 100 116 113 0 5 3 12 7 15 4 4 4 0 -1 -8 -4 -8 13 5 38
29 25 24 44 48 41 52 -2 4 10 19 28 34 18 15 26 23 18 19 -13 -7 -13 -5 -1 9
7 9 18 14 24 10 5 -3 7 -1 3 5 -3 5 14 31 39 55 25 25 45 48 45 51 0 3 12 18
26 33 40 43 70 88 53 79 -7 -4 -3 2 11 14 14 12 18 19 10 15 -8 -4 -6 2 6 12
29 25 72 88 53 79 -7 -4 -5 0 5 8 11 9 17 16 13 16 -4 0 2 9 13 20 12 12 18
25 15 29 -2 5 2 12 11 15 8 3 12 10 9 16 -3 5 -2 10 4 10 6 0 8 7 5 15 -4 8 1
17 10 21 9 3 13 10 10 15 -3 5 0 9 6 9 6 0 8 5 5 10 -3 6 -2 10 4 10 12 0 62
100 55 111 -3 5 0 9 6 9 6 0 8 4 5 10 -3 6 -1 10 5 10 6 0 8 4 5 10 -3 6 -1
10 5 10 7 0 9 7 6 16 -3 8 -2 12 4 9 9 -5 15 15 11 38 0 4 4 7 10 7 6 0 9 7 5
15 -3 8 -1 15 4 15 5 0 6 7 3 17 -5 12 -3 14 7 8 10 -6 12 -4 7 8 -3 10 -3 17
2 17 5 0 11 8 14 18 2 9 8 26 12 37 5 16 5 17 -4 5 -6 -9 -11 -10 -11 -3 0 6
7 19 16 27 8 9 12 20 9 26 -3 5 -1 10 5 10 7 0 9 8 5 21 -5 16 -4 19 6 14 9
-6 11 -4 6 8 -3 9 -1 19 4 23 6 3 9 15 6 25 -3 11 -1 19 5 19 5 0 6 10 3 21
-5 16 -4 19 5 14 10 -6 11 -1 6 19 -5 20 -3 26 5 21 8 -6 9 2 4 25 -5 21 -4
30 3 26 12 -7 25 55 16 78 -4 9 -1 16 6 16 9 0 11 10 7 30 -4 19 -2 30 4 30 7
0 9 12 5 35 -5 24 -3 35 5 35 8 0 10 16 6 55 -3 30 -3 55 1 55 4 0 7 119 7
264 0 145 -3 262 -7 260 -3 -2 -4 19 -1 47 4 40 2 50 -8 44 -9 -6 -11 3 -6 39
4 29 3 45 -3 41 -6 -4 -7 10 -4 35 4 27 2 40 -6 40 -8 0 -9 10 -5 30 4 19 3
30 -4 30 -6 0 -8 12 -4 32 4 23 3 29 -6 24 -9 -6 -11 2 -6 31 5 29 4 35 -5 23
-9 -12 -10 -8 -5 19 5 25 4 32 -5 26 -9 -6 -10 1 -5 26 5 26 4 30 -5 19 -8
-11 -9 -6 -4 24 5 30 4 37 -6 31 -10 -6 -11 -2 -6 19 5 20 4 26 -5 20 -9 -5
-10 0 -5 20 4 15 2 26 -4 26 -6 0 -8 11 -4 26 5 20 4 25 -6 19 -9 -5 -10 -2
-5 15 5 17 4 20 -5 15 -10 -6 -11 -1 -6 19 5 19 3 26 -4 21 -7 -5 -9 2 -4 21
5 21 4 25 -6 19 -10 -6 -12 -1 -8 18 3 15 1 24 -4 21 -5 -3 -6 6 -2 20 4 17 2
26 -6 26 -7 0 -9 8 -5 21 5 14 3 19 -3 15 -6 -3 -13 7 -17 25 -4 17 -31 65
-60 108 -108 158 -154 278 -162 426 -3 57 0 126 6 160 16 87 79 209 149 290
158 182 175 205 174 237 -1 28 1 30 15 15 15 -15 14 -19 -9 -54 -14 -21 -61
-76 -103 -123 -99 -109 -167 -212 -197 -298 -19 -57 -23 -86 -22 -192 0 -110
3 -135 28 -205 30 -88 68 -159 131 -250 23 -33 47 -73 54 -90 8 -21 10 -23 5
-5 -3 14 -8 80 -11 146 -5 105 -3 131 15 191 37 120 119 212 247 275 80 40
286 103 650 198 88 23 164 46 169 50 17 16 -328 173 -534 243 -117 40 -332 97
-366 97 -12 0 -33 9 -46 20 -14 10 -28 16 -32 13 -3 -3 -7 -1 -7 5 -3 27 -4
31 -13 39 -6 5 -6 2 -1 -7 8 -13 7 -13 -9 -1 -9 8 -15 20 -12 27 3 7 -3 18
-12 26 -15 12 -16 11 -3 -4 7 -10 11 -18 9 -18 -3 0 -20 19 -38 43 -19 23 -25
35 -15 27 20 -14 20 -14 1 7 -10 12 -23 21 -29 20 -6 -1 -16 9 -23 23 -7 14
-34 45 -61 70 -29 27 -38 33 -23 15 14 -18 7 -13 -16 10 -23 22 -46 39 -51 38
-6 -2 -13 6 -16 18 -3 11 -10 18 -15 15 -6 -3 -13 1 -16 10 -3 8 -10 13 -16 9
-5 -3 -18 3 -30 15 -11 11 -22 20 -25 20 -3 0 -10 0 -16 0 -5 0 -7 5 -3 12 5
7 3 8 -6 3 -8 -5 -17 -2 -24 6 -6 8 -20 21 -30 29 -18 13 -19 13 -12 0 4 -8 1
-7 -8 4 -8 10 -19 15 -25 11 -6 -3 -11 -1 -11 5 0 6 -4 8 -10 5 -5 -3 -10 -2
-10 4 0 6 -7 7 -17 4 -10 -4 -14 -2 -10 4 5 7 -1 9 -15 5 -14 -3 -19 -2 -14 6
7 12 -5 16 -31 13 -7 -1 -13 3 -13 8 0 6 -7 8 -15 5 -8 -4 -15 -1 -15 5 0 6
-7 8 -17 4 -11 -5 -14 -3 -8 6 5 10 2 11 -14 6 -13 -4 -21 -2 -21 5 0 8 -9 10
-26 6 -16 -4 -23 -3 -20 3 4 6 -8 8 -31 5 -31 -3 -34 -2 -18 6 17 9 15 10 -12
7 -18 -2 -30 0 -27 5 3 4 -10 8 -28 8 -89 1 -136 6 -131 13 2 4 -41 7 -97 7
-62 0 -99 -4 -95 -10z m-855 -384 c0 -2 -8 -10 -17 -17 -16 -13 -17 -12 -4 4
13 16 21 21 21 13z m-40 -40 c0 -2 -8 -10 -17 -17 -16 -13 -17 -12 -4 4 13 16
21 21 21 13z m1384 -186 c66 -25 135 -95 161 -163 59 -155 -73 -337 -246 -337
-130 0 -255 103 -275 228 -16 100 66 231 169 271 67 26 123 26 191 1z m-2434
-1513 c0 -2 -10 -12 -22 -23 l-23 -19 19 23 c18 21 26 27 26 19z m-340 -370
c0 -2 -12 -14 -27 -28 l-28 -24 24 28 c23 25 31 32 31 24z m-260 -280 c0 -2
-12 -14 -27 -28 l-28 -24 24 28 c23 25 31 32 31 24z m-970 -1061 c0 -2 -8 -10
-17 -17 -16 -13 -17 -12 -4 4 13 16 21 21 21 13z m4140 -1109 c0 -2 -15 -16
-32 -33 l-33 -29 29 33 c28 30 36 37 36 29z m-120 -120 c0 -2 -15 -16 -32 -33
l-33 -29 29 33 c28 30 36 37 36 29z"/>
<path d="M7148 8077 c-195 -64 -244 -303 -87 -427 152 -120 372 -43 412 145
21 102 -35 210 -135 261 -59 30 -138 39 -190 21z"/>
<path d="M6027 6624 c-327 -62 -695 -275 -1108 -642 -149 -133 -464 -441 -625
-612 -49 -52 -127 -136 -174 -185 -47 -50 -195 -209 -330 -355 -135 -145 -337
-364 -450 -485 -113 -121 -293 -314 -399 -430 -107 -115 -219 -237 -250 -270
-31 -33 -117 -125 -191 -205 -74 -80 -186 -200 -249 -267 -62 -68 -118 -120
-124 -116 -5 3 -7 2 -4 -4 7 -11 -13 -34 -358 -408 -243 -265 -531 -580 -758
-830 -75 -82 -137 -156 -137 -162 0 -10 99 -13 464 -13 l464 0 55 29 c54 28
106 67 582 431 127 97 298 227 380 290 83 63 270 208 417 322 207 161 274 208
297 208 43 0 499 157 865 297 412 158 898 383 1176 543 232 134 499 323 675
476 486 424 768 881 836 1352 17 124 7 357 -21 452 -46 161 -145 314 -264 411
-77 63 -218 133 -321 160 -106 28 -336 35 -448 13z"/>
<path d="M8181 5634 c0 -11 3 -14 6 -6 3 7 2 16 -1 19 -3 4 -6 -2 -5 -13z"/>
<path d="M5545 2729 c-100 -20 -294 -41 -443 -47 l-162 -7 207 -117 c115 -64
332 -184 483 -266 1325 -718 1261 -685 1277 -669 19 19 2 34 -587 516 -206
169 -445 363 -530 433 -85 69 -164 135 -174 147 -11 11 -22 20 -25 20 -3 -1
-24 -5 -46 -10z"/>
</g>
</svg>
